<svg width="18" height="20" viewBox="0 0 18 20" fill="none" xmlns="http://www.w3.org/2000/svg">
<path fill-rule="evenodd" clip-rule="evenodd" d="M11.2075 11.1551C11.2075 12.5171 11.2383 13.6508 10.5535 14.8614C9.99687 15.8438 9.11708 16.4492 8.1347 16.4492C6.79322 16.4492 6.00834 15.4309 6.00834 13.915C6.00834 10.9396 8.68104 10.3984 11.2075 10.3984V11.1525V11.1551ZM14.7292 19.6759C14.4984 19.8836 14.1649 19.899 13.9033 19.7554C12.7414 18.791 12.5336 18.3472 11.8975 17.429C9.98148 19.3809 8.62205 19.9683 6.13915 19.9683C3.19713 19.9683 0.90918 18.1523 0.90918 14.5229C0.90918 11.686 2.4456 9.75971 4.63352 8.81067C6.52903 7.97962 9.17864 7.82829 11.205 7.60257V7.14857C11.205 6.31496 11.2691 5.33257 10.7792 4.61438C10.356 3.96801 9.53774 3.70638 8.81698 3.70638C7.48576 3.70638 6.29818 4.38866 6.00834 5.80453C5.94935 6.12002 5.7185 6.43038 5.40301 6.44834L2.01725 6.08154C1.72997 6.01742 1.41191 5.78914 1.49399 5.35309C2.27631 1.24145 5.98782 0 9.31202 0C11.01 0 13.2364 0.454 14.5753 1.73905C16.2734 3.32677 16.1118 5.44543 16.1118 7.7539V13.1968C16.1118 14.8332 16.7915 15.5514 17.4302 16.4338C17.6533 16.7518 17.702 17.1289 17.4173 17.3597C16.7043 17.9599 15.4346 19.0629 14.7395 19.6836L14.7292 19.6733V19.6759Z" fill="white"/>
</svg>
