<svg width="16" height="15" viewBox="0 0 16 15" fill="none" xmlns="http://www.w3.org/2000/svg">
<path d="M1 1.33325V5.99992C1 7.2887 3.786 8.33325 7.22222 8.33325M13.4444 5.61103V1.33325" stroke="white" stroke-linecap="round" stroke-linejoin="round"/>
<path d="M1 6V10.6667C1 11.9554 3.786 13 7.22222 13M13.6 12.3778L15 13.7778M9.55556 10.6667C9.55556 11.2855 9.80139 11.879 10.239 12.3166C10.6766 12.7542 11.2701 13 11.8889 13C12.5077 13 13.1012 12.7542 13.5388 12.3166C13.9764 11.879 14.2222 11.2855 14.2222 10.6667C14.2222 10.0478 13.9764 9.45434 13.5388 9.01675C13.1012 8.57917 12.5077 8.33333 11.8889 8.33333C11.2701 8.33333 10.6766 8.57917 10.239 9.01675C9.80139 9.45434 9.55556 10.0478 9.55556 10.6667Z" stroke="white" stroke-linecap="round" stroke-linejoin="round"/>
</svg>
