<svg width="26" height="26" viewBox="0 0 26 26" fill="none" xmlns="http://www.w3.org/2000/svg">
<path d="M21.3072 5.52527H8.74962C6.96893 5.52527 5.52539 6.96881 5.52539 8.7495V21.307C5.52539 23.0877 6.96893 24.5313 8.74962 24.5313H21.3072C23.0879 24.5313 24.5314 23.0877 24.5314 21.307V8.7495C24.5314 6.96881 23.0879 5.52527 21.3072 5.52527Z" stroke="white" stroke-width="2" stroke-linejoin="round"/>
<path d="M19.9777 5.52524L20.006 4.16767C20.0036 3.32828 19.6691 2.52396 19.0756 1.93043C18.482 1.33689 17.6777 1.00239 16.8383 1H4.62019C3.66093 1.00284 2.74177 1.38516 2.06346 2.06346C1.38516 2.74177 1.00284 3.66093 1 4.62019V16.8383C1.00239 17.6777 1.33689 18.482 1.93043 19.0756C2.52396 19.6691 3.32828 20.0036 4.16767 20.006H5.52524" stroke="white" stroke-width="2" stroke-linecap="round" stroke-linejoin="round"/>
</svg>
