<svg width="25" height="25" viewBox="0 0 25 25" fill="none" xmlns="http://www.w3.org/2000/svg">
<path d="M1 3.55556C1 2.87778 1.26925 2.22776 1.7485 1.7485C2.22776 1.26925 2.87778 1 3.55556 1H21.4444C22.1222 1 22.7722 1.26925 23.2515 1.7485C23.7308 2.22776 24 2.87778 24 3.55556V21.4444C24 22.1222 23.7308 22.7722 23.2515 23.2515C22.7722 23.7308 22.1222 24 21.4444 24H3.55556C2.87778 24 2.22776 23.7308 1.7485 23.2515C1.26925 22.7722 1 22.1222 1 21.4444V3.55556Z" stroke="white" stroke-linecap="round" stroke-linejoin="round"/>
<path d="M12.5002 13.1389C12.8531 13.1389 13.1391 12.8528 13.1391 12.5C13.1391 12.1471 12.8531 11.8611 12.5002 11.8611C12.1474 11.8611 11.8613 12.1471 11.8613 12.5C11.8613 12.8528 12.1474 13.1389 12.5002 13.1389Z" fill="white" stroke="white" stroke-linecap="round" stroke-linejoin="round"/>
</svg>
