<svg width="22" height="19" viewBox="0 0 22 19" fill="none" xmlns="http://www.w3.org/2000/svg">
<path d="M8.14286 10.9167H13.8571M11 13.8293V8.08333M1 2.41667V15.1667C1 15.9181 1.30102 16.6388 1.83684 17.1701C2.37266 17.7015 3.09938 18 3.85714 18H18.1429C18.9006 18 19.6273 17.7015 20.1632 17.1701C20.699 16.6388 21 15.9181 21 15.1667V6.66242C20.9996 5.91121 20.6984 5.19091 20.1627 4.65986C19.6269 4.12882 18.9004 3.8305 18.1429 3.8305L11 3.83333L8.14286 1H2.42857C2.04969 1 1.68633 1.14926 1.41842 1.41493C1.15051 1.68061 1 2.04094 1 2.41667Z" stroke="white" stroke-linecap="round" stroke-linejoin="round"/>
</svg>
