<svg width="56" height="56" viewBox="0 0 56 56" fill="none" xmlns="http://www.w3.org/2000/svg">
<rect width="56" height="56" rx="28" fill="url(#paint0_linear_1452_18151)"/>
<rect width="56" height="56" rx="28" fill="url(#paint1_radial_1452_18151)"/>
<path d="M23 27V22C23 19 25 17 28 17C31 17 33 19 33 22V27M28 31V35M28 39C29.8565 39 31.637 38.2625 32.9497 36.9497C34.2625 35.637 35 33.8565 35 32C35 30.1435 34.2625 28.363 32.9497 27.0503C31.637 25.7375 29.8565 25 28 25C26.1435 25 24.363 25.7375 23.0503 27.0503C21.7375 28.363 21 30.1435 21 32C21 33.8565 21.7375 35.637 23.0503 36.9497C24.363 38.2625 26.1435 39 28 39ZM28 32C28.2652 32 28.5196 31.8946 28.7071 31.7071C28.8946 31.5196 29 31.2652 29 31C29 30.7348 28.8946 30.4804 28.7071 30.2929C28.5196 30.1054 28.2652 30 28 30C27.7348 30 27.4804 30.1054 27.2929 30.2929C27.1054 30.4804 27 30.7348 27 31C27 31.2652 27.1054 31.5196 27.2929 31.7071C27.4804 31.8946 27.7348 32 28 32Z" stroke="url(#paint2_linear_1452_18151)"/>
<g clip-path="url(#clip0_1452_18151)">
<path d="M8.56043 10.9999C6.00043 10.9999 6.00043 8.43994 6.00043 8.43994C6.00043 10.9999 3.44043 10.9999 3.44043 10.9999C6.00043 10.9999 6.00043 13.5599 6.00043 13.5599C6.00043 10.9999 8.56043 10.9999 8.56043 10.9999Z" fill="white"/>
<path d="M5.9998 8.43999C5.9998 8.43999 5.9998 11 8.5598 11M5.9998 8.43999C5.9998 11 3.4398 11 3.4398 11M5.9998 8.43999V7.79999M8.5598 11C8.5598 11 5.9998 11 5.9998 13.56M8.5598 11H9.1998M3.4398 11C5.9998 11 5.9998 13.56 5.9998 13.56M3.4398 11H2.7998M5.9998 13.56V14.2" stroke="white" stroke-width="0.8" stroke-linecap="round" stroke-linejoin="round"/>
</g>
<g clip-path="url(#clip1_1452_18151)">
<path d="M44.9201 5.00002C43.0001 5.00002 43.0001 3.08002 43.0001 3.08002C43.0001 5.00002 41.0801 5.00002 41.0801 5.00002C43.0001 5.00002 43.0001 6.92002 43.0001 6.92002C43.0001 5.00002 44.9201 5.00002 44.9201 5.00002Z" fill="#5B6EDE"/>
<path d="M42.9996 3.0801C42.9996 3.0801 42.9996 5.0001 44.9196 5.0001M42.9996 3.0801C42.9996 5.0001 41.0796 5.0001 41.0796 5.0001M42.9996 3.0801V2.6001M44.9196 5.0001C44.9196 5.0001 42.9996 5.0001 42.9996 6.9201M44.9196 5.0001H45.3996M41.0796 5.0001C42.9996 5.0001 42.9996 6.9201 42.9996 6.9201M41.0796 5.0001H40.5996M42.9996 6.9201V7.4001" stroke="#5B6EDE" stroke-width="0.6" stroke-linecap="round" stroke-linejoin="round"/>
</g>
<g clip-path="url(#clip2_1452_18151)">
<path d="M53.2797 41C51.9997 41 51.9997 39.72 51.9997 39.72C51.9997 41 50.7197 41 50.7197 41C51.9997 41 51.9997 42.28 51.9997 42.28C51.9997 41 53.2797 41 53.2797 41Z" fill="white"/>
<path d="M52.0004 39.7199C52.0004 39.7199 52.0004 40.9999 53.2804 40.9999M52.0004 39.7199C52.0004 40.9999 50.7204 40.9999 50.7204 40.9999M52.0004 39.7199V39.3999M53.2804 40.9999C53.2804 40.9999 52.0004 40.9999 52.0004 42.2799M53.2804 40.9999H53.6004M50.7204 40.9999C52.0004 40.9999 52.0004 42.2799 52.0004 42.2799M50.7204 40.9999H50.4004M52.0004 42.2799V42.5999" stroke="white" stroke-width="0.4" stroke-linecap="round" stroke-linejoin="round"/>
</g>
<defs>
<linearGradient id="paint0_linear_1452_18151" x1="-9.59939e-07" y1="56" x2="57.648" y2="1.75123" gradientUnits="userSpaceOnUse">
<stop offset="0.2596" stop-color="#BAB3FF" stop-opacity="0"/>
<stop offset="0.8902" stop-color="#BAB3FF" stop-opacity="0.32"/>
</linearGradient>
<radialGradient id="paint1_radial_1452_18151" cx="0" cy="0" r="1" gradientUnits="userSpaceOnUse" gradientTransform="translate(28 28) rotate(45) scale(39.598)">
<stop stop-color="#8566FF" stop-opacity="0.32"/>
<stop offset="1" stop-color="#8566FF" stop-opacity="0"/>
</radialGradient>
<linearGradient id="paint2_linear_1452_18151" x1="28" y1="17" x2="28" y2="39" gradientUnits="userSpaceOnUse">
<stop stop-color="white"/>
<stop offset="1" stop-color="#7F80BB"/>
</linearGradient>
<clipPath id="clip0_1452_18151">
<rect width="8" height="8" fill="white" transform="translate(2 7)"/>
</clipPath>
<clipPath id="clip1_1452_18151">
<rect width="6" height="6" fill="white" transform="translate(40 2)"/>
</clipPath>
<clipPath id="clip2_1452_18151">
<rect width="4" height="4" fill="white" transform="translate(50 39)"/>
</clipPath>
</defs>
</svg>
