<svg width="56" height="56" viewBox="0 0 56 56" fill="none" xmlns="http://www.w3.org/2000/svg">
<rect width="56" height="56" rx="28" fill="url(#paint0_linear_1452_18182)"/>
<rect width="56" height="56" rx="28" fill="url(#paint1_radial_1452_18182)"/>
<path d="M32.963 16C31.7083 15.9997 30.4709 16.2933 29.3501 16.8574C28.2293 17.4214 27.2562 18.2401 26.5087 19.2479C25.7613 20.2557 25.2603 21.4246 25.046 22.6609C24.8316 23.8972 24.9098 25.1665 25.2743 26.3671L16 35.6414V40.9981H21.3567L30.6311 31.7238C31.7362 32.0593 32.9008 32.1526 34.0453 31.9973C35.1897 31.842 36.2873 31.4418 37.2631 30.8239C38.239 30.2061 39.0702 29.3851 39.7 28.417C40.3299 27.4489 40.7436 26.3564 40.9131 25.2139C41.0825 24.0714 41.0037 22.9058 40.6819 21.7966C40.3601 20.6873 39.803 19.6605 39.0485 18.786C38.2939 17.9115 37.3598 17.21 36.3096 16.7292C35.2595 16.2485 34.118 15.9997 32.963 16ZM32.963 30.2846C32.3483 30.2845 31.737 30.1936 31.1489 30.015L30.1248 29.7043L29.3686 30.4605L26.5287 33.3005L25.2975 32.0702L24.0351 33.3326L25.2663 34.5638L23.8503 35.9798L22.6191 34.7486L21.3567 36.011L22.5879 37.2422L20.6175 39.2126H17.7856V36.3806L26.5367 27.6295L27.2938 26.8733L26.9831 25.8493C26.6015 24.5913 26.6263 23.2451 27.054 22.002C27.4816 20.759 28.2903 19.6824 29.3651 18.9255C30.4399 18.1686 31.726 17.7699 33.0404 17.7861C34.3549 17.8022 35.6308 18.2325 36.6866 19.0156C37.7424 19.7987 38.5244 20.8948 38.9214 22.148C39.3183 23.4012 39.31 24.7477 38.8975 25.9958C38.4851 27.244 37.6896 28.3304 36.6241 29.1004C35.5587 29.8703 34.2776 30.2848 32.963 30.2846Z" fill="url(#paint2_linear_1452_18182)"/>
<path d="M33.8559 24.9279C34.842 24.9279 35.6415 24.1284 35.6415 23.1423C35.6415 22.1561 34.842 21.3567 33.8559 21.3567C32.8697 21.3567 32.0703 22.1561 32.0703 23.1423C32.0703 24.1284 32.8697 24.9279 33.8559 24.9279Z" fill="url(#paint3_linear_1452_18182)"/>
<g clip-path="url(#clip0_1452_18182)">
<path d="M8.56043 10.9999C6.00043 10.9999 6.00043 8.43994 6.00043 8.43994C6.00043 10.9999 3.44043 10.9999 3.44043 10.9999C6.00043 10.9999 6.00043 13.5599 6.00043 13.5599C6.00043 10.9999 8.56043 10.9999 8.56043 10.9999Z" fill="white"/>
<path d="M5.9998 8.43999C5.9998 8.43999 5.9998 11 8.5598 11M5.9998 8.43999C5.9998 11 3.4398 11 3.4398 11M5.9998 8.43999V7.79999M8.5598 11C8.5598 11 5.9998 11 5.9998 13.56M8.5598 11H9.1998M3.4398 11C5.9998 11 5.9998 13.56 5.9998 13.56M3.4398 11H2.7998M5.9998 13.56V14.2" stroke="white" stroke-width="0.8" stroke-linecap="round" stroke-linejoin="round"/>
</g>
<g clip-path="url(#clip1_1452_18182)">
<path d="M44.9201 5.00002C43.0001 5.00002 43.0001 3.08002 43.0001 3.08002C43.0001 5.00002 41.0801 5.00002 41.0801 5.00002C43.0001 5.00002 43.0001 6.92002 43.0001 6.92002C43.0001 5.00002 44.9201 5.00002 44.9201 5.00002Z" fill="#5B6EDE"/>
<path d="M42.9996 3.0801C42.9996 3.0801 42.9996 5.0001 44.9196 5.0001M42.9996 3.0801C42.9996 5.0001 41.0796 5.0001 41.0796 5.0001M42.9996 3.0801V2.6001M44.9196 5.0001C44.9196 5.0001 42.9996 5.0001 42.9996 6.9201M44.9196 5.0001H45.3996M41.0796 5.0001C42.9996 5.0001 42.9996 6.9201 42.9996 6.9201M41.0796 5.0001H40.5996M42.9996 6.9201V7.4001" stroke="#5B6EDE" stroke-width="0.6" stroke-linecap="round" stroke-linejoin="round"/>
</g>
<g clip-path="url(#clip2_1452_18182)">
<path d="M53.2797 41C51.9997 41 51.9997 39.72 51.9997 39.72C51.9997 41 50.7197 41 50.7197 41C51.9997 41 51.9997 42.28 51.9997 42.28C51.9997 41 53.2797 41 53.2797 41Z" fill="white"/>
<path d="M52.0004 39.7199C52.0004 39.7199 52.0004 40.9999 53.2804 40.9999M52.0004 39.7199C52.0004 40.9999 50.7204 40.9999 50.7204 40.9999M52.0004 39.7199V39.3999M53.2804 40.9999C53.2804 40.9999 52.0004 40.9999 52.0004 42.2799M53.2804 40.9999H53.6004M50.7204 40.9999C52.0004 40.9999 52.0004 42.2799 52.0004 42.2799M50.7204 40.9999H50.4004M52.0004 42.2799V42.5999" stroke="white" stroke-width="0.4" stroke-linecap="round" stroke-linejoin="round"/>
</g>
<defs>
<linearGradient id="paint0_linear_1452_18182" x1="-9.59939e-07" y1="56" x2="57.648" y2="1.75123" gradientUnits="userSpaceOnUse">
<stop offset="0.2596" stop-color="#BAB3FF" stop-opacity="0"/>
<stop offset="0.8902" stop-color="#BAB3FF" stop-opacity="0.32"/>
</linearGradient>
<radialGradient id="paint1_radial_1452_18182" cx="0" cy="0" r="1" gradientUnits="userSpaceOnUse" gradientTransform="translate(28 28) rotate(45) scale(39.598)">
<stop stop-color="#8566FF" stop-opacity="0.32"/>
<stop offset="1" stop-color="#8566FF" stop-opacity="0"/>
</radialGradient>
<linearGradient id="paint2_linear_1452_18182" x1="28.5" y1="16" x2="28.5" y2="40.9981" gradientUnits="userSpaceOnUse">
<stop stop-color="white"/>
<stop offset="1" stop-color="#8081BC"/>
</linearGradient>
<linearGradient id="paint3_linear_1452_18182" x1="33.8559" y1="21.3567" x2="33.8559" y2="24.9279" gradientUnits="userSpaceOnUse">
<stop stop-color="white"/>
<stop offset="1" stop-color="#8081BC"/>
</linearGradient>
<clipPath id="clip0_1452_18182">
<rect width="8" height="8" fill="white" transform="translate(2 7)"/>
</clipPath>
<clipPath id="clip1_1452_18182">
<rect width="6" height="6" fill="white" transform="translate(40 2)"/>
</clipPath>
<clipPath id="clip2_1452_18182">
<rect width="4" height="4" fill="white" transform="translate(50 39)"/>
</clipPath>
</defs>
</svg>
