<svg width="70" height="65" viewBox="0 0 70 65" fill="none" xmlns="http://www.w3.org/2000/svg">
<path d="M14.2552 18.0718C16.3398 14.7668 18.1874 11.2622 19.8279 7.53982C20.3643 6.32589 20.878 5.08791 21.3704 3.82588C21.5435 3.38162 21.4626 2.90907 21.1504 2.54829C20.8368 2.18609 20.3813 2.03753 19.9144 2.14365C18.6075 2.44076 17.3062 2.77891 16.012 3.15525C11.0452 4.60263 6.19057 6.62442 1.53602 9.22489L0.646259 9.72149C0.146746 10.0002 -0.0973349 10.5562 0.0360579 11.1109L0.274462 12.1055C1.24653 16.1519 2.35056 19.9946 3.60786 23.6491C4.25496 25.5294 4.94463 27.3602 5.67687 29.1429C6.05151 30.0527 6.43607 30.9511 6.83341 31.8353C7.35421 32.9969 7.89772 34.1373 8.45967 35.2564C8.64557 35.6257 8.96628 35.862 9.37355 35.9313C9.78083 36.0006 10.1626 35.8846 10.4606 35.5974C11.3773 34.7174 12.2656 33.8189 13.1256 32.9021C16.2773 29.5419 19.0573 25.9256 21.5151 22.0291C24.4782 17.3291 26.963 12.2286 29.0561 6.67394C29.2321 6.20563 29.6393 5.90144 30.1388 5.86324C30.9349 5.80099 31.7325 5.7543 32.53 5.72317C33.3516 5.69063 34.1747 5.67365 34.9977 5.67365C36.0067 5.67365 37.0157 5.69771 38.0246 5.74723C38.4858 5.76986 38.947 5.79675 39.4082 5.82929C39.807 5.85758 40.1376 6.04717 40.3618 6.37541C40.5861 6.70365 40.6414 7.08141 40.5222 7.46059C38.2063 14.7908 35.3 21.326 31.6161 27.1678C28.0911 32.7592 23.8382 37.7324 18.6926 42.182C17.6907 43.0479 16.6562 43.894 15.5848 44.7216C15.0427 45.1404 14.9363 45.9158 15.3436 46.4647C16.1354 47.5301 16.9571 48.5742 17.8085 49.5943C18.2853 50.1659 18.7706 50.729 19.2659 51.2865C20.431 52.598 21.6499 53.8714 22.9229 55.1079C23.6196 55.7842 24.332 56.4492 25.0628 57.1043C26.3882 58.2927 27.769 59.4458 29.2108 60.5664C30.5929 61.6402 32.029 62.6844 33.5219 63.7002L34.2868 64.2195C34.7239 64.5166 35.2702 64.5166 35.7073 64.2195L36.4722 63.7002C45.4889 57.5697 52.4381 50.3753 57.8306 41.8227C63.1862 33.3294 66.9794 23.5218 69.7224 12.1041L69.9608 11.1094C70.0942 10.5548 69.8502 9.9988 69.3506 9.72008L68.4609 9.22347C66.6374 8.20338 64.7812 7.27383 62.901 6.43201C61.7274 5.9071 60.5439 5.41615 59.3519 4.96058C58.9999 4.82617 58.6437 4.84739 58.3103 5.02283C57.9768 5.19827 57.7582 5.48124 57.6731 5.84626C57.3765 7.10405 57.0672 8.34345 56.7436 9.56303C54.1055 19.5051 50.5337 28.1554 45.7359 35.7261C42.1215 41.4307 37.7962 46.5355 32.6364 51.1337C32.3526 51.3869 32.2078 51.7166 32.2164 52.0958C32.2235 52.4749 32.381 52.7989 32.6747 53.0409C33.3956 53.6323 34.1278 54.2109 34.8714 54.774C35.3596 55.1433 36.0266 55.115 36.4807 54.7061C41.8462 49.8688 46.3645 44.4981 50.1619 38.5035C54.8988 31.0275 58.4976 22.5979 61.2094 13.0294C61.3144 12.6573 61.5571 12.3785 61.9119 12.2215C62.2666 12.0645 62.6356 12.0715 62.9833 12.2441C63.0712 12.288 63.1592 12.3319 63.2472 12.3757C63.7865 12.6445 64.0547 13.2388 63.9014 13.8189C61.3655 23.4326 57.9853 31.7717 53.4017 39.0425C48.8465 46.2666 43.0794 52.458 35.7399 57.8216C35.2887 58.1512 34.6997 58.1512 34.2485 57.8216C33.9973 57.6377 33.7461 57.4523 33.4978 57.2656C32.0503 56.1804 30.6653 55.0627 29.3399 53.9082C28.5949 53.2602 27.8683 52.6009 27.1616 51.9302C25.8788 50.7149 24.657 49.4627 23.4919 48.171C23.2251 47.8753 22.9612 47.5768 22.7001 47.2768C22.2488 46.7576 22.2999 45.9695 22.815 45.514C28.0386 40.8846 32.3937 35.7247 36.0379 29.9437C40.3547 23.0959 43.6569 15.395 46.2127 6.68385C46.5731 5.45436 46.9194 4.20506 47.25 2.93595C47.3423 2.58224 47.2883 2.24268 47.0882 1.93566C46.8896 1.62865 46.6015 1.44047 46.2396 1.37964C44.9625 1.16458 43.6796 0.986311 42.3954 0.844828C41.4488 0.741545 40.5023 0.656655 39.5544 0.592988C38.036 0.49112 36.5162 0.440186 34.9949 0.440186C34.721 0.440186 34.4471 0.4416 34.1733 0.445845C33.1643 0.458578 32.1568 0.492534 31.1492 0.550543C29.5173 0.642507 27.8896 0.795309 26.2662 1.00612C25.778 1.06979 25.3935 1.38388 25.2359 1.84794C24.6641 3.52594 24.0581 5.16007 23.4167 6.75176C21.6088 11.2382 19.5185 15.3936 17.0876 19.249C15.5692 21.6584 13.9146 23.9533 12.1124 26.1406C11.82 26.4943 11.3943 26.6556 10.9402 26.5849C10.4861 26.5142 10.1313 26.2284 9.96389 25.8011C9.82056 25.436 9.67865 25.0682 9.53959 24.6975C8.8116 22.7719 8.13328 20.7883 7.49896 18.7425C7.00228 17.1395 6.53399 15.4997 6.08982 13.8203C5.93656 13.2388 6.20476 12.646 6.74401 12.3771C7.73878 11.8791 8.74349 11.4094 9.75528 10.968C10.2619 10.7458 10.8295 10.8689 11.1985 11.2792C11.5689 11.6895 11.6299 12.2654 11.356 12.7436C10.8636 13.601 10.357 14.4442 9.83475 15.2733C9.63183 15.5945 9.585 15.951 9.6971 16.3132L10.1924 17.9134C10.3754 18.502 10.5627 19.0905 10.7543 19.6763C10.9076 20.1432 11.2907 20.4629 11.7789 20.5294C12.2685 20.5973 12.7226 20.3936 12.9979 19.9861C13.4236 19.3551 13.8394 18.717 14.2466 18.0704L14.2552 18.0718ZM17.2281 40.0343C21.7195 35.804 25.5325 31.1435 28.7822 25.9907C31.8247 21.1647 34.3634 15.9142 36.492 10.1841C36.6396 9.78799 36.5885 9.38052 36.3459 9.03247C36.1046 8.68442 35.7399 8.49342 35.3156 8.49059C35.2106 8.49059 35.1056 8.49059 35.0006 8.49059C34.2144 8.49059 33.4297 8.50615 32.6435 8.53728L32.3469 8.5486C31.8318 8.5684 31.4032 8.87542 31.2202 9.35505C29.2945 14.365 27.0296 18.9717 24.3547 23.2133C21.5478 27.6658 18.2782 31.7264 14.4652 35.4432C13.4435 36.4392 12.3834 37.4098 11.2822 38.3563C10.8168 38.7567 10.7075 39.4174 11.0197 39.9466C11.3943 40.5804 11.776 41.2072 12.1677 41.8269C12.2713 41.9924 12.3763 42.1566 12.4813 42.3207C12.6842 42.6376 12.9837 42.8314 13.3569 42.8866C13.7301 42.9418 14.0735 42.8442 14.3602 42.5994C15.345 41.7632 16.3 40.9073 17.2267 40.0343H17.2281ZM49.0153 7.26393C46.522 16.3075 43.2482 24.2037 38.8817 31.1293C35.5143 36.4703 31.4827 41.2482 26.6437 45.5422C26.3797 45.7771 26.2378 46.0742 26.2222 46.4251C26.2066 46.776 26.3215 47.0858 26.5642 47.3419C27.1971 48.0125 27.8442 48.669 28.5055 49.3128C28.9809 49.7754 29.7316 49.791 30.2254 49.351C35.3866 44.7542 39.6963 39.6353 43.3078 33.9081C47.9539 26.5396 51.4249 18.1808 54.053 8.64056C54.4078 7.35589 54.7456 6.05 55.0705 4.72289C55.2295 4.07065 54.8477 3.40992 54.202 3.22033C53.3194 2.96 52.4339 2.71948 51.5455 2.49594C51.2064 2.41105 50.8857 2.45915 50.5863 2.63884C50.2868 2.81852 50.0953 3.08027 50.0129 3.41841C49.6951 4.72289 49.363 6.00614 49.0153 7.26534V7.26393Z" fill="#A143FF"/>
</svg>
