<svg width="802" height="982" viewBox="0 0 802 982" fill="none" xmlns="http://www.w3.org/2000/svg">
<path d="M0 164C0 72.3207 74.3207 -2 166 -2H798V983H166C74.3207 983 0 908.679 0 817V164Z" fill="#101E71"/>
<path style="mix-blend-mode:color-dodge" d="M736.238 988.316C778.895 988.316 813.476 954.219 813.476 912.158C813.476 870.097 778.895 836 736.238 836C693.581 836 659 870.097 659 912.158C659 954.219 693.581 988.316 736.238 988.316Z" fill="url(#paint0_radial_0_1)"/>
<circle cx="403.5" cy="220.5" r="127.5" fill="#0E1A60"/>
<path d="M444.299 199.118C444.428 193.147 443.634 181.506 436.295 174.38C428.293 166.589 415.13 166.736 409.841 167.159C407.652 167.294 405.924 169.072 405.851 171.265C405.575 176.562 405.797 189.729 413.801 197.507C420.19 203.717 429.872 204.876 436.209 204.876C436.77 204.876 437.296 204.866 437.801 204.849C438.963 207.054 439.937 209.352 440.712 211.721C440.935 212.446 441.086 213.191 441.162 213.945C439.735 213.675 438.37 213.142 437.138 212.373L436.451 211.947C435.491 211.31 434.481 210.753 433.431 210.279C426.231 207.029 417.785 208.397 411.98 213.755C411.723 212.814 411.386 211.896 410.973 211.013C410.495 210.236 409.511 209.941 408.685 210.327C407.86 210.713 407.455 211.658 407.746 212.522C395.309 209.494 379.376 208.134 368.186 216.243C353.372 226.965 351.934 251.352 352.002 261.337C352.019 265.182 354.487 268.588 358.135 269.802C366.587 272.725 375.441 274.319 384.382 274.527C392.017 274.527 399.799 273.014 406.045 268.495C417.661 260.07 420.99 243.276 421.877 232.094C421.994 232.237 422.116 232.375 422.216 232.528C422.765 233.351 423.879 233.574 424.702 233.024C425.526 232.475 425.748 231.362 425.199 230.538C424.179 229.1 422.826 227.931 421.255 227.132C421.172 227.072 421.083 227.021 420.99 226.978C420.22 226.578 419.424 226.233 418.606 225.945C419.12 225.615 419.654 225.316 420.205 225.049C421.539 224.331 423.074 224.079 424.568 224.332C425.76 224.704 426.868 225.307 427.827 226.107C428.27 226.424 428.711 226.736 429.159 227.026C430.728 228.069 432.416 228.92 434.187 229.561C436.269 230.296 438.458 230.68 440.666 230.697C445.747 230.844 450.552 228.39 453.413 224.189C456.275 219.988 456.799 214.619 454.802 209.944C452.786 205.144 449.036 201.279 444.299 199.118ZM416.302 194.936C409.348 188.174 409.187 176.261 409.431 171.449C409.423 171.26 409.493 171.076 409.625 170.941C409.757 170.805 409.939 170.73 410.128 170.732C411.132 170.653 412.446 170.583 413.963 170.583C419.699 170.583 428.304 171.598 433.796 176.944C439.215 182.212 440.508 190.6 440.698 196.327C435.563 187.724 428.108 180.742 419.186 176.182C418.317 175.708 417.228 176.028 416.754 176.897C416.28 177.766 416.6 178.855 417.469 179.33C431.884 187.194 437.342 196.964 439.137 201.2C433.909 201.526 422.881 201.332 416.302 194.936ZM403.944 265.593C390.452 275.361 368.215 269.415 359.273 266.401C357.079 265.674 355.595 263.626 355.587 261.314C355.523 251.883 356.823 228.892 370.287 219.146C381.496 211.027 398.894 213.859 408.94 216.527C409.503 219.518 409.093 222.612 407.769 225.354C407.492 225.908 407.521 226.567 407.846 227.095C408.171 227.623 408.746 227.945 409.366 227.948C412.475 227.983 415.551 228.578 418.448 229.706C417.867 240.105 415.157 257.463 403.944 265.593ZM451.314 220.673C449.163 225.214 443.247 228.865 435.36 226.166C433.858 225.617 432.427 224.891 431.097 224.004C430.695 223.746 430.303 223.466 429.906 223.183C428.56 222.081 426.998 221.273 425.321 220.811C423.054 220.384 420.71 220.731 418.665 221.797C417.011 222.62 415.455 223.627 414.027 224.798C413.281 224.676 412.568 224.576 411.953 224.515C412.605 222.418 412.86 220.219 412.706 218.029C418.053 212.328 425.514 210.554 431.97 213.556C432.864 213.965 433.724 214.444 434.542 214.99L435.259 215.435C435.438 215.548 439.794 218.163 442.544 217.393C443.327 217.185 443.985 216.656 444.357 215.937C444.912 214.222 444.836 212.366 444.143 210.702C443.459 208.534 442.597 206.426 441.566 204.4C441.949 204.249 442.308 204.042 442.63 203.786L442.699 203.729C443.041 203.449 443.337 203.116 443.573 202.741C447.122 204.564 449.915 207.58 451.461 211.258C452.742 214.277 452.688 217.696 451.314 220.673Z" fill="white"/>
<defs>
<radialGradient id="paint0_radial_0_1" cx="0" cy="0" r="1" gradientUnits="userSpaceOnUse" gradientTransform="translate(739.319 900.815) rotate(90) scale(76.385 77.0492)">
<stop stop-color="white"/>
<stop offset="0.15" stop-color="#C4C4C4" stop-opacity="0.77"/>
<stop offset="0.32" stop-color="#898989" stop-opacity="0.54"/>
<stop offset="0.48" stop-color="#585858" stop-opacity="0.35"/>
<stop offset="0.64" stop-color="#323232" stop-opacity="0.2"/>
<stop offset="0.78" stop-color="#161616" stop-opacity="0.09"/>
<stop offset="0.9" stop-color="#050505" stop-opacity="0.02"/>
<stop offset="1" stop-opacity="0"/>
</radialGradient>
</defs>
</svg>
