<svg width="20" height="20" viewBox="0 0 20 20" fill="none" xmlns="http://www.w3.org/2000/svg">
<path d="M17.0607 2.9375C16.135 2.00606 15.0339 1.26695 13.821 0.762789C12.6081 0.258627 11.3074 -0.000617944 9.99375 1.10606e-06C4.46529 1.10606e-06 0 4.475 0 10C0 15.525 4.46529 20 9.99375 20C14.6592 20 18.5491 16.8125 19.6623 12.5H17.0607C16.5454 13.9619 15.5889 15.228 14.3231 16.1235C13.0573 17.0191 11.5446 17.5001 9.99375 17.5C5.85366 17.5 2.48906 14.1375 2.48906 10C2.48906 5.8625 5.85366 2.5 9.99375 2.5C12.07 2.5 13.9212 3.3625 15.272 4.725L11.2445 8.75H20V1.10606e-06L17.0607 2.9375Z" fill="white"/>
</svg>
