<svg width="802" height="982" viewBox="0 0 802 982" fill="none" xmlns="http://www.w3.org/2000/svg">
<path d="M0 164C0 72.3207 74.3207 -2 166 -2H802V983H166C74.3207 983 0 908.679 0 817V164Z" fill="#101E71"/>
<g style="mix-blend-mode:overlay">
<path d="M795.78 1.83H785.76V11.85H795.78V1.83Z" fill="#0E1A60"/>
<path d="M795.78 15.31H785.76V25.33H795.78V15.31Z" fill="#0E1A60"/>
<path d="M795.78 28.8H785.76V38.82H795.78V28.8Z" fill="#0E1A60"/>
<path d="M795.78 42.28H785.76V52.3H795.78V42.28Z" fill="#0E1A60"/>
<path d="M795.78 55.77H785.76V65.79H795.78V55.77Z" fill="#0E1A60"/>
<path d="M795.78 69.25H785.76V79.27H795.78V69.25Z" fill="#0E1A60"/>
<path d="M795.78 82.74H785.76V92.76H795.78V82.74Z" fill="#0E1A60"/>
<path d="M795.78 96.22H785.76V106.24H795.78V96.22Z" fill="#0E1A60"/>
<path d="M795.78 109.71H785.76V119.73H795.78V109.71Z" fill="#0E1A60"/>
<path d="M795.78 123.19H785.76V133.21H795.78V123.19Z" fill="#0E1A60"/>
<path d="M795.78 136.68H785.76V146.7H795.78V136.68Z" fill="#0E1A60"/>
<path d="M795.78 163.65H785.76V173.67H795.78V163.65Z" fill="#0E1A60"/>
<path d="M779.09 1.83H769.07V11.85H779.09V1.83Z" fill="#0E1A60"/>
<path d="M779.09 15.31H769.07V25.33H779.09V15.31Z" fill="#0E1A60"/>
<path d="M779.09 28.8H769.07V38.82H779.09V28.8Z" fill="#0E1A60"/>
<path d="M779.09 42.28H769.07V52.3H779.09V42.28Z" fill="#0E1A60"/>
<path d="M779.09 55.77H769.07V65.79H779.09V55.77Z" fill="#0E1A60"/>
<path d="M779.09 69.25H769.07V79.27H779.09V69.25Z" fill="#0E1A60"/>
<path d="M779.09 82.74H769.07V92.76H779.09V82.74Z" fill="#0E1A60"/>
<path d="M779.09 96.22H769.07V106.24H779.09V96.22Z" fill="#0E1A60"/>
<path d="M779.09 109.71H769.07V119.73H779.09V109.71Z" fill="#0E1A60"/>
<path d="M779.09 123.19H769.07V133.21H779.09V123.19Z" fill="#0E1A60"/>
<path d="M779.09 136.68H769.07V146.7H779.09V136.68Z" fill="#0E1A60"/>
<path d="M779.09 150.16H769.07V160.18H779.09V150.16Z" fill="#0E1A60"/>
<path d="M779.09 177.13H769.07V187.15H779.09V177.13Z" fill="#0E1A60"/>
<path d="M762.401 1.83H752.381V11.85H762.401V1.83Z" fill="#0E1A60"/>
<path d="M762.401 15.31H752.381V25.33H762.401V15.31Z" fill="#0E1A60"/>
<path d="M762.401 28.8H752.381V38.82H762.401V28.8Z" fill="#0E1A60"/>
<path d="M762.401 42.28H752.381V52.3H762.401V42.28Z" fill="#0E1A60"/>
<path d="M762.401 55.77H752.381V65.79H762.401V55.77Z" fill="#0E1A60"/>
<path d="M762.401 82.74H752.381V92.76H762.401V82.74Z" fill="#0E1A60"/>
<path d="M762.401 96.22H752.381V106.24H762.401V96.22Z" fill="#0E1A60"/>
<path d="M762.401 109.71H752.381V119.73H762.401V109.71Z" fill="#0E1A60"/>
<path d="M762.401 123.19H752.381V133.21H762.401V123.19Z" fill="#0E1A60"/>
<path d="M762.401 136.68H752.381V146.7H762.401V136.68Z" fill="#0E1A60"/>
<path d="M762.401 150.16H752.381V160.18H762.401V150.16Z" fill="#0E1A60"/>
<path d="M745.709 1.83H735.689V11.85H745.709V1.83Z" fill="#0E1A60"/>
<path d="M745.709 15.31H735.689V25.33H745.709V15.31Z" fill="#0E1A60"/>
<path d="M745.709 28.8H735.689V38.82H745.709V28.8Z" fill="#0E1A60"/>
<path d="M745.709 42.28H735.689V52.3H745.709V42.28Z" fill="#0E1A60"/>
<path d="M745.709 55.77H735.689V65.79H745.709V55.77Z" fill="#0E1A60"/>
<path d="M745.709 69.25H735.689V79.27H745.709V69.25Z" fill="#0E1A60"/>
<path d="M745.709 82.74H735.689V92.76H745.709V82.74Z" fill="#0E1A60"/>
<path d="M745.709 96.22H735.689V106.24H745.709V96.22Z" fill="#0E1A60"/>
<path d="M745.709 109.71H735.689V119.73H745.709V109.71Z" fill="#0E1A60"/>
<path d="M745.709 123.19H735.689V133.21H745.709V123.19Z" fill="#0E1A60"/>
<path d="M745.709 136.68H735.689V146.7H745.709V136.68Z" fill="#0E1A60"/>
<path d="M745.709 150.16H735.689V160.18H745.709V150.16Z" fill="#0E1A60"/>
<path d="M745.709 163.65H735.689V173.67H745.709V163.65Z" fill="#0E1A60"/>
<path d="M745.709 177.13H735.689V187.15H745.709V177.13Z" fill="#0E1A60"/>
<path d="M729.02 1.83H719V11.85H729.02V1.83Z" fill="#0E1A60"/>
<path d="M729.02 15.31H719V25.33H729.02V15.31Z" fill="#0E1A60"/>
<path d="M729.02 28.8H719V38.82H729.02V28.8Z" fill="#0E1A60"/>
<path d="M729.02 42.28H719V52.3H729.02V42.28Z" fill="#0E1A60"/>
<path d="M729.02 55.77H719V65.79H729.02V55.77Z" fill="#0E1A60"/>
<path d="M729.02 69.25H719V79.27H729.02V69.25Z" fill="#0E1A60"/>
<path d="M729.02 96.22H719V106.24H729.02V96.22Z" fill="#0E1A60"/>
<path d="M729.02 109.71H719V119.73H729.02V109.71Z" fill="#0E1A60"/>
<path d="M729.02 123.19H719V133.21H729.02V123.19Z" fill="#0E1A60"/>
<path d="M729.02 136.68H719V146.7H729.02V136.68Z" fill="#0E1A60"/>
<path d="M729.02 150.16H719V160.18H729.02V150.16Z" fill="#0E1A60"/>
<path d="M729.02 163.65H719V173.67H729.02V163.65Z" fill="#0E1A60"/>
<path d="M729.02 177.13H719V187.15H729.02V177.13Z" fill="#0E1A60"/>
</g>
<path style="mix-blend-mode:color-dodge" d="M736.238 988.316C778.895 988.316 813.476 954.219 813.476 912.158C813.476 870.097 778.895 836 736.238 836C693.581 836 659 870.097 659 912.158C659 954.219 693.581 988.316 736.238 988.316Z" fill="url(#paint0_radial_0_1)"/>
<path style="mix-blend-mode:color-dodge" d="M469 547.485C597.682 547.485 702 444.626 702 317.743C702 190.859 597.682 88 469 88C340.318 88 236 190.859 236 317.743C236 444.626 340.318 547.485 469 547.485Z" fill="url(#paint1_radial_0_1)"/>
<circle cx="403.5" cy="220.5" r="127.5" fill="#0E1A60"/>
<path d="M407.667 241.167C407.667 242.139 407.281 243.072 406.593 243.759C405.906 244.447 404.973 244.833 404.001 244.833C403.028 244.833 402.096 244.447 401.408 243.759C400.72 243.072 400.334 242.139 400.334 241.167C400.334 240.194 400.72 239.262 401.408 238.574C402.096 237.886 403.028 237.5 404.001 237.5C404.973 237.5 405.906 237.886 406.593 238.574C407.281 239.262 407.667 240.194 407.667 241.167ZM406.751 210.917C406.751 210.187 406.461 209.488 405.945 208.972C405.429 208.456 404.73 208.167 404.001 208.167C403.271 208.167 402.572 208.456 402.056 208.972C401.54 209.488 401.251 210.187 401.251 210.917V227.417C401.251 228.146 401.54 228.845 402.056 229.361C402.572 229.877 403.271 230.167 404.001 230.167C404.73 230.167 405.429 229.877 405.945 229.361C406.461 228.845 406.751 228.146 406.751 227.417V210.917Z" fill="white"/>
<path d="M396.066 188.895C399.597 182.79 408.404 182.79 411.935 188.895L444.814 245.743C448.345 251.855 443.934 259.5 436.876 259.5H371.125C364.063 259.5 359.656 251.855 363.187 245.743L396.066 188.895ZM407.176 191.648C406.853 191.093 406.389 190.632 405.832 190.311C405.275 189.991 404.643 189.822 404.001 189.822C403.358 189.822 402.726 189.991 402.169 190.311C401.612 190.632 401.149 191.093 400.825 191.648L367.95 248.496C367.63 249.054 367.461 249.686 367.462 250.33C367.463 250.973 367.632 251.605 367.954 252.162C368.275 252.719 368.737 253.182 369.294 253.505C369.851 253.827 370.482 253.998 371.125 254H436.876C437.519 253.998 438.15 253.827 438.706 253.505C439.262 253.182 439.724 252.72 440.045 252.163C440.366 251.606 440.536 250.975 440.537 250.332C440.538 249.69 440.371 249.058 440.051 248.5L407.176 191.648Z" fill="white"/>
<defs>
<radialGradient id="paint0_radial_0_1" cx="0" cy="0" r="1" gradientUnits="userSpaceOnUse" gradientTransform="translate(739.319 900.815) rotate(90) scale(76.385 77.0492)">
<stop stop-color="white"/>
<stop offset="0.15" stop-color="#C4C4C4" stop-opacity="0.77"/>
<stop offset="0.32" stop-color="#898989" stop-opacity="0.54"/>
<stop offset="0.48" stop-color="#585858" stop-opacity="0.35"/>
<stop offset="0.64" stop-color="#323232" stop-opacity="0.2"/>
<stop offset="0.78" stop-color="#161616" stop-opacity="0.09"/>
<stop offset="0.9" stop-color="#050505" stop-opacity="0.02"/>
<stop offset="1" stop-opacity="0"/>
</radialGradient>
<radialGradient id="paint1_radial_0_1" cx="0" cy="0" r="1" gradientUnits="userSpaceOnUse" gradientTransform="translate(478.294 283.523) rotate(90) scale(230.427 232.431)">
<stop stop-color="white"/>
<stop offset="0.15" stop-color="#C4C4C4" stop-opacity="0.77"/>
<stop offset="0.32" stop-color="#898989" stop-opacity="0.54"/>
<stop offset="0.48" stop-color="#585858" stop-opacity="0.35"/>
<stop offset="0.64" stop-color="#323232" stop-opacity="0.2"/>
<stop offset="0.78" stop-color="#161616" stop-opacity="0.09"/>
<stop offset="0.9" stop-color="#050505" stop-opacity="0.02"/>
<stop offset="1" stop-opacity="0"/>
</radialGradient>
</defs>
</svg>
