<svg width="18" height="18" viewBox="0 0 18 18" fill="none" xmlns="http://www.w3.org/2000/svg">
<path d="M17.6663 4.04162V15.9171C17.6663 16.4155 17.4995 16.8318 17.1658 17.1662C16.8322 17.5006 16.4155 17.6674 15.9157 17.6667H2.08367C1.58462 17.6667 1.16826 17.4999 0.834591 17.1662C0.500924 16.8325 0.33373 16.4158 0.333008 15.916V2.08404C0.333008 1.58499 0.500202 1.16862 0.834591 0.834957C1.16898 0.50129 1.58534 0.334096 2.08367 0.333374H13.9581L17.6663 4.04162ZM16.583 4.50421L13.4955 1.41671H2.08367C1.88867 1.41671 1.7287 1.47918 1.60376 1.60412C1.47881 1.72907 1.41634 1.88904 1.41634 2.08404V15.9171C1.41634 16.1114 1.47881 16.271 1.60376 16.396C1.7287 16.5209 1.88867 16.5834 2.08367 16.5834H15.9168C16.111 16.5834 16.2706 16.5209 16.3956 16.396C16.5205 16.271 16.583 16.111 16.583 15.916V4.50421ZM8.99967 13.9162C9.59695 13.9162 10.1076 13.7046 10.5315 13.2814C10.9555 12.8582 11.1671 12.3475 11.1663 11.7495C11.1656 11.1515 10.9536 10.6413 10.5304 10.2188C10.1072 9.79629 9.59695 9.58468 8.99967 9.58396C8.4024 9.58323 7.89215 9.79485 7.46892 10.2188C7.0457 10.6427 6.83373 11.153 6.83301 11.7495C6.83228 12.3461 7.04426 12.8567 7.46892 13.2814C7.89359 13.706 8.40384 13.9177 8.99967 13.9162ZM3.33384 6.58421H11.3743V3.33421H3.33384V6.58421ZM1.41634 4.50421V16.5834V1.41671V4.50421Z" fill="white"/>
</svg>
