<svg width="18" height="21" viewBox="0 0 18 21" fill="none" xmlns="http://www.w3.org/2000/svg">
<path d="M16.5 20.16H7.5C7.10218 20.16 6.72065 20.0083 6.43934 19.7382C6.15804 19.4682 6 19.1019 6 18.72V16.56H7.5V18.72H16.5V1.44H7.5V3.6H6V1.44C6 1.05809 6.15804 0.691819 6.43934 0.421766C6.72065 0.151714 7.10218 0 7.5 0H16.5C16.8978 0 17.2794 0.151714 17.5607 0.421766C17.842 0.691819 18 1.05809 18 1.44V18.72C18 19.1019 17.842 19.4682 17.5607 19.7382C17.2794 20.0083 16.8978 20.16 16.5 20.16Z" fill="white"/>
<path d="M5.5605 13.3819L2.871 10.8H13.5V9.36001H2.871L5.5605 6.77809L4.5 5.76001L0 10.08L4.5 14.4L5.5605 13.3819Z" fill="white"/>
</svg>
