<svg width="205" height="210" viewBox="0 0 205 210" fill="none" xmlns="http://www.w3.org/2000/svg">
<path d="M96.7146 159.373C96.7146 159.373 37.1016 144.49 37.1016 40.9884C56.9726 39.3761 76.4301 37.1212 96.7146 18.5502C116.999 37.1212 136.457 39.3761 156.328 40.9884C156.328 144.49 96.7146 159.373 96.7146 159.373Z" fill="url(#paint0_linear_1423_41494)" fill-opacity="0.2" stroke="url(#paint1_linear_1423_41494)" stroke-width="1.64204" stroke-linecap="round" stroke-linejoin="round"/>
<path d="M106.073 116.692L100.755 77.134C103.39 75.7002 105.178 72.9069 105.178 69.6972C105.178 64.9079 101.198 61.0468 96.3668 61.2401C92.0029 61.4156 88.4511 64.9525 88.2608 69.3135C88.112 72.6838 89.9355 75.6436 92.6752 77.134L87.3564 116.692H106.073Z" stroke="url(#paint2_linear_1423_41494)" stroke-width="1.64204" stroke-linecap="round" stroke-linejoin="round"/>
<path d="M128.742 36.7435C131.434 35.6726 134.082 34.6791 136.679 33.7688C164.302 24.0743 186.151 23.5061 192.993 34.2686C203.94 51.4862 172.316 91.1895 122.361 122.947C72.4071 154.705 23.0359 166.494 12.092 149.274C4.51544 137.354 17.3364 114.66 42.5173 91.2877" stroke="url(#paint3_linear_1423_41494)" stroke-width="1.64204" stroke-linecap="round" stroke-linejoin="round"/>
<path style="mix-blend-mode:color-dodge" d="M150.687 147.299C150.687 148.474 116.953 149.425 75.3433 149.425C33.7331 149.425 0 148.474 0 147.299C0 146.124 33.7331 145.172 75.3433 145.172C116.953 145.172 150.687 146.124 150.687 147.299Z" fill="url(#paint4_radial_1423_41494)"/>
<path style="mix-blend-mode:color-dodge" opacity="0.5" d="M75.3465 164.555C88.1347 164.555 98.5016 156.829 98.5016 147.298C98.5016 137.768 88.1347 130.042 75.3465 130.042C62.5583 130.042 52.1914 137.768 52.1914 147.298C52.1914 156.829 62.5583 164.555 75.3465 164.555Z" fill="url(#paint5_radial_1423_41494)"/>
<path style="mix-blend-mode:color-dodge" opacity="0.8" d="M75.3465 154.941C84.8933 154.941 92.6325 151.519 92.6325 147.299C92.6325 143.078 84.8933 139.656 75.3465 139.656C65.7998 139.656 58.0605 143.078 58.0605 147.299C58.0605 151.519 65.7998 154.941 75.3465 154.941Z" fill="url(#paint6_radial_1423_41494)"/>
<path style="mix-blend-mode:color-dodge" d="M106.327 116.32C107.115 117.108 93.8804 131.616 76.7729 148.726C59.6624 165.837 45.1548 179.068 44.3665 178.28C43.5782 177.492 56.8126 162.984 73.9201 145.874C91.0306 128.763 105.538 115.532 106.327 116.32Z" fill="url(#paint7_radial_1423_41494)"/>
<path style="mix-blend-mode:color-dodge" opacity="0.5" d="M86.9084 158.861C92.1674 153.602 91.253 144.161 84.866 137.774C78.479 131.387 69.0381 130.473 63.7791 135.732C58.5201 140.991 59.4345 150.432 65.8215 156.819C72.2085 163.206 81.6494 164.12 86.9084 158.861Z" fill="url(#paint8_radial_1423_41494)"/>
<path style="mix-blend-mode:color-dodge" opacity="0.8" d="M80.4655 152.421C84.3908 148.496 85.2799 143.021 82.4511 140.192C79.6224 137.363 74.1471 138.252 70.2218 142.178C66.2964 146.103 65.4074 151.578 68.2361 154.407C71.0648 157.236 76.5401 156.347 80.4655 152.421Z" fill="url(#paint9_radial_1423_41494)"/>
<path style="mix-blend-mode:color-dodge" d="M168.575 49.7757C168.215 50.8585 148.18 45.1946 123.826 37.1213C99.4696 29.0509 80.018 21.629 80.375 20.5462C80.7349 19.4635 100.77 25.1273 125.123 33.2006C149.48 41.271 168.932 48.6929 168.575 49.7757Z" fill="url(#paint10_radial_1423_41494)"/>
<path style="mix-blend-mode:color-dodge" opacity="0.5" d="M143.769 41.5228C145.049 37.6599 137.432 31.6609 126.755 28.1238C116.079 24.5867 106.386 24.8508 105.106 28.7138C103.827 32.5767 111.444 38.5757 122.121 42.1128C132.797 45.6499 142.49 45.3858 143.769 41.5228Z" fill="url(#paint11_radial_1423_41494)"/>
<path style="mix-blend-mode:color-dodge" opacity="0.8" d="M138.905 39.9444C138.337 41.6549 131.418 40.9022 123.449 38.2607C115.479 35.6192 109.479 32.0912 110.045 30.3807C110.613 28.6703 117.532 29.4229 125.501 32.0644C133.47 34.7059 139.47 38.2339 138.905 39.9444Z" fill="url(#paint12_radial_1423_41494)"/>
<path style="mix-blend-mode:color-dodge" d="M86.8579 155.618C85.2753 153.721 110.424 130.158 143.029 102.99C175.635 75.822 203.347 55.3382 204.93 57.2361C206.512 59.1339 181.364 82.6966 148.759 109.865C116.156 137.033 88.4404 157.516 86.8579 155.618Z" fill="url(#paint13_radial_1423_41494)"/>
<path style="mix-blend-mode:color-dodge" opacity="0.6" d="M156.188 118.817C170.752 106.682 177.951 91.3148 172.267 84.4926C166.583 77.6704 150.168 81.9771 135.604 94.1118C121.039 106.247 113.84 121.614 119.524 128.436C125.208 135.258 141.623 130.952 156.188 118.817Z" fill="url(#paint14_radial_1423_41494)"/>
<path style="mix-blend-mode:color-dodge" opacity="0.7" d="M154.486 116.774C179.602 95.8486 196.116 74.2696 191.372 68.5758C186.628 62.882 162.423 75.2296 137.307 96.1548C112.192 117.08 95.6777 138.659 100.422 144.353C105.165 150.047 129.371 137.699 154.486 116.774Z" fill="url(#paint15_radial_1423_41494)"/>
<path style="mix-blend-mode:color-dodge" d="M54.8113 45.7449C64.7458 45.7449 72.7993 37.5769 72.7993 27.5011C72.7993 17.4253 64.7458 9.2572 54.8113 9.2572C44.8768 9.2572 36.8232 17.4253 36.8232 27.5011C36.8232 37.5769 44.8768 45.7449 54.8113 45.7449Z" fill="url(#paint16_radial_1423_41494)"/>
<path style="mix-blend-mode:color-dodge" d="M18.8155 11.1312C21.8466 11.1312 24.3038 8.63941 24.3038 5.56557C24.3038 2.49174 21.8466 -0.00012207 18.8155 -0.00012207C15.7843 -0.00012207 13.3271 2.49174 13.3271 5.56557C13.3271 8.63941 15.7843 11.1312 18.8155 11.1312Z" fill="url(#paint17_radial_1423_41494)"/>
<path style="mix-blend-mode:color-dodge" d="M42.0596 44.775C46.4444 44.775 49.9991 41.1698 49.9991 36.7225C49.9991 32.2752 46.4444 28.6699 42.0596 28.6699C37.6747 28.6699 34.1201 32.2752 34.1201 36.7225C34.1201 41.1698 37.6747 44.775 42.0596 44.775Z" fill="url(#paint18_radial_1423_41494)"/>
<path style="mix-blend-mode:color-dodge" d="M47.927 13.2194C50.7511 13.2194 53.0405 10.8967 53.0405 8.03149C53.0405 5.1663 50.7511 2.84363 47.927 2.84363C45.1029 2.84363 42.8135 5.1663 42.8135 8.03149C42.8135 10.8967 45.1029 13.2194 47.927 13.2194Z" fill="url(#paint19_radial_1423_41494)"/>
<path style="mix-blend-mode:color-dodge" d="M40.0799 18.3122C42.0349 18.3122 43.6198 16.7046 43.6198 14.7217C43.6198 12.7387 42.0349 11.1312 40.0799 11.1312C38.1249 11.1312 36.54 12.7387 36.54 14.7217C36.54 16.7046 38.1249 18.3122 40.0799 18.3122Z" fill="url(#paint20_radial_1423_41494)"/>
<path style="mix-blend-mode:color-dodge" d="M20.2707 40.6492C25.2322 40.6492 29.2543 36.5698 29.2543 31.5377C29.2543 26.5055 25.2322 22.4261 20.2707 22.4261C15.3092 22.4261 11.2871 26.5055 11.2871 31.5377C11.2871 36.5698 15.3092 40.6492 20.2707 40.6492Z" fill="url(#paint21_radial_1423_41494)"/>
<path style="mix-blend-mode:color-dodge" d="M38.2167 69.5157C46.2323 69.5157 52.7303 62.9259 52.7303 54.7969C52.7303 46.6679 46.2323 40.078 38.2167 40.078C30.2011 40.078 23.7031 46.6679 23.7031 54.7969C23.7031 62.9259 30.2011 69.5157 38.2167 69.5157Z" fill="url(#paint22_radial_1423_41494)"/>
<path style="mix-blend-mode:color-dodge" d="M104.603 138.099C152.75 113.227 190.862 91.2847 189.728 89.0895C188.594 86.8942 148.643 105.277 100.496 130.149C52.3486 155.021 14.2367 176.964 15.3708 179.159C16.5048 181.354 56.4553 162.971 104.603 138.099Z" fill="url(#paint23_radial_1423_41494)"/>
<path style="mix-blend-mode:color-dodge" opacity="0.6" d="M109.928 148.409C131.436 137.299 145.568 121.896 141.492 114.007C137.417 106.118 116.677 108.729 95.1696 119.839C73.662 130.95 59.5304 146.352 63.6058 154.241C67.6813 162.131 88.4205 159.519 109.928 148.409Z" fill="url(#paint24_radial_1423_41494)"/>
<path style="mix-blend-mode:color-dodge" opacity="0.7" d="M108.707 146.046C145.795 126.887 173.103 106.018 169.702 99.4339C166.3 92.8495 133.477 103.043 96.3897 122.202C59.3019 141.361 31.9937 162.23 35.3951 168.814C38.7964 175.399 71.6194 165.205 108.707 146.046Z" fill="url(#paint25_radial_1423_41494)"/>
<path style="mix-blend-mode:color-dodge" d="M0.976945 159.391C0.884729 157.823 17.4836 155.571 38.0507 154.358C58.6178 153.144 75.3654 153.433 75.4576 154.997C75.5498 156.565 58.9509 158.817 38.3838 160.031C17.8167 161.244 1.06916 160.956 0.976945 159.391Z" fill="url(#paint26_radial_1423_41494)"/>
<path style="mix-blend-mode:color-dodge" opacity="0.6" d="M38.8537 167.342C48.0412 166.8 55.2196 161.797 54.8871 156.168C54.5547 150.54 46.8373 146.417 37.6499 146.959C28.4625 147.502 21.2841 152.505 21.6166 158.133C21.949 163.762 29.6663 167.885 38.8537 167.342Z" fill="url(#paint27_radial_1423_41494)"/>
<path style="mix-blend-mode:color-dodge" opacity="0.7" d="M38.7537 165.655C54.5964 164.72 67.2145 160.153 66.9371 155.456C66.6597 150.759 53.5918 147.71 37.7491 148.646C21.9065 149.582 9.28836 154.148 9.56577 158.845C9.84318 163.542 22.9111 166.591 38.7537 165.655Z" fill="url(#paint28_radial_1423_41494)"/>
<path style="mix-blend-mode:color-dodge" d="M99.9539 65.0865C101.022 64.9764 103.045 76.2416 104.472 90.2435C105.9 104.245 106.195 115.686 105.127 115.793C104.059 115.903 102.036 104.638 100.608 90.6362C99.1804 76.6343 98.8859 65.1936 99.9539 65.0865Z" fill="url(#paint29_radial_1423_41494)"/>
<path style="mix-blend-mode:color-dodge" opacity="0.6" d="M103.727 101.711C107.561 101.32 110.152 95.932 109.513 89.6772C108.875 83.4224 105.248 78.6693 101.414 79.0608C97.58 79.4523 94.9894 84.8402 95.6281 91.095C96.2667 97.3498 99.8927 102.103 103.727 101.711Z" fill="url(#paint30_radial_1423_41494)"/>
<path style="mix-blend-mode:color-dodge" opacity="0.7" d="M104.564 109.915C107.765 109.588 109.466 100.58 108.365 89.7946C107.264 79.0093 103.777 70.531 100.577 70.8577C97.3764 71.1845 95.675 80.1926 96.7762 90.9779C97.8774 101.763 101.364 110.242 104.564 109.915Z" fill="url(#paint31_radial_1423_41494)"/>
<g style="mix-blend-mode:color-dodge" filter="url(#filter0_f_1423_41494)">
<path d="M97.91 205.951C139.316 205.951 172.881 196.661 172.881 185.202C172.881 173.743 139.316 164.454 97.91 164.454C56.5044 164.454 22.9385 173.743 22.9385 185.202C22.9385 196.661 56.5044 205.951 97.91 205.951Z" fill="url(#paint32_radial_1423_41494)" style="mix-blend-mode:color-dodge"/>
</g>
<path style="mix-blend-mode:color-dodge" d="M97.9102 196.83C121.114 196.83 139.925 191.624 139.925 185.202C139.925 178.78 121.114 173.574 97.9102 173.574C74.7061 173.574 55.8955 178.78 55.8955 185.202C55.8955 191.624 74.7061 196.83 97.9102 196.83Z" fill="url(#paint33_radial_1423_41494)"/>
<defs>
<filter id="filter0_f_1423_41494" x="18.9385" y="160.454" width="157.943" height="49.4971" filterUnits="userSpaceOnUse" color-interpolation-filters="sRGB">
<feFlood flood-opacity="0" result="BackgroundImageFix"/>
<feBlend mode="normal" in="SourceGraphic" in2="BackgroundImageFix" result="shape"/>
<feGaussianBlur stdDeviation="2" result="effect1_foregroundBlur_1423_41494"/>
</filter>
<linearGradient id="paint0_linear_1423_41494" x1="37.1016" y1="88.9614" x2="156.328" y2="88.9614" gradientUnits="userSpaceOnUse">
<stop stop-color="#57C3F9" stop-opacity="0.2"/>
<stop offset="0.07" stop-color="#57C3F9" stop-opacity="0.28"/>
<stop offset="0.2" stop-color="#57C3F9" stop-opacity="0.49"/>
<stop offset="0.4" stop-color="#57C3F9" stop-opacity="0.83"/>
<stop offset="0.49" stop-color="#57C3F9"/>
<stop offset="0.76" stop-color="#57C3F9" stop-opacity="0.99"/>
<stop offset="0.82" stop-color="#57C3F9" stop-opacity="0.81"/>
<stop offset="0.87" stop-color="#57C3F9" stop-opacity="0.68"/>
<stop offset="0.92" stop-color="#57C3F9" stop-opacity="0.58"/>
<stop offset="0.96" stop-color="#57C3F9" stop-opacity="0.52"/>
<stop offset="1" stop-color="#57C3F9" stop-opacity="0.5"/>
</linearGradient>
<linearGradient id="paint1_linear_1423_41494" x1="49.2324" y1="27.7004" x2="144.2" y2="122.665" gradientUnits="userSpaceOnUse">
<stop stop-color="#57C3F9" stop-opacity="0.5"/>
<stop offset="0.03" stop-color="#57C3F9" stop-opacity="0.58"/>
<stop offset="0.08" stop-color="#57C3F9" stop-opacity="0.79"/>
<stop offset="0.14" stop-color="#57C3F9"/>
<stop offset="0.42" stop-color="#57C3F9"/>
<stop offset="0.5" stop-color="#57C3F9" stop-opacity="0.73"/>
<stop offset="0.6" stop-color="#57C3F9" stop-opacity="0.42"/>
<stop offset="0.68" stop-color="#57C3F9" stop-opacity="0.19"/>
<stop offset="0.74" stop-color="#57C3F9" stop-opacity="0.05"/>
<stop offset="0.77" stop-color="#57C3F9" stop-opacity="0"/>
<stop offset="0.83" stop-color="#57C3F9" stop-opacity="0.29"/>
<stop offset="0.91" stop-color="#57C3F9" stop-opacity="0.67"/>
<stop offset="0.97" stop-color="#57C3F9" stop-opacity="0.91"/>
<stop offset="0.99" stop-color="#57C3F9"/>
</linearGradient>
<linearGradient id="paint2_linear_1423_41494" x1="79.06" y1="74.2336" x2="114.376" y2="109.549" gradientUnits="userSpaceOnUse">
<stop stop-color="#57C3F9" stop-opacity="0.5"/>
<stop offset="0.03" stop-color="#57C3F9" stop-opacity="0.58"/>
<stop offset="0.08" stop-color="#57C3F9" stop-opacity="0.79"/>
<stop offset="0.14" stop-color="#57C3F9"/>
<stop offset="0.42" stop-color="#57C3F9"/>
<stop offset="0.99" stop-color="#57C3F9"/>
</linearGradient>
<linearGradient id="paint3_linear_1423_41494" x1="84.2645" y1="60.9029" x2="120.244" y2="126.903" gradientUnits="userSpaceOnUse">
<stop stop-color="#57C3F9" stop-opacity="0"/>
<stop offset="0.09" stop-color="#57C3F9" stop-opacity="0.05"/>
<stop offset="0.26" stop-color="#57C3F9" stop-opacity="0.19"/>
<stop offset="0.5" stop-color="#57C3F9" stop-opacity="0.42"/>
<stop offset="0.78" stop-color="#57C3F9" stop-opacity="0.73"/>
<stop offset="1" stop-color="#57C3F9"/>
</linearGradient>
<radialGradient id="paint4_radial_1423_41494" cx="0" cy="0" r="1" gradientUnits="userSpaceOnUse" gradientTransform="translate(75.1299 130.632) scale(75.3217 2.08584)">
<stop stop-color="white"/>
<stop offset="0.08" stop-color="#CDCDCD" stop-opacity="0.8"/>
<stop offset="0.17" stop-color="#9D9D9D" stop-opacity="0.62"/>
<stop offset="0.26" stop-color="#737373" stop-opacity="0.45"/>
<stop offset="0.36" stop-color="#4F4F4F" stop-opacity="0.31"/>
<stop offset="0.46" stop-color="#323232" stop-opacity="0.2"/>
<stop offset="0.57" stop-color="#1C1C1C" stop-opacity="0.11"/>
<stop offset="0.68" stop-color="#0C0C0C" stop-opacity="0.05"/>
<stop offset="0.82" stop-color="#020202" stop-opacity="0.01"/>
<stop offset="1" stop-opacity="0"/>
</radialGradient>
<radialGradient id="paint5_radial_1423_41494" cx="0" cy="0" r="1" gradientUnits="userSpaceOnUse" gradientTransform="translate(75.109 150.038) scale(23.147 17.2119)">
<stop stop-color="white"/>
<stop offset="0.15" stop-color="#C4C4C4" stop-opacity="0.77"/>
<stop offset="0.32" stop-color="#898989" stop-opacity="0.54"/>
<stop offset="0.48" stop-color="#585858" stop-opacity="0.35"/>
<stop offset="0.64" stop-color="#323232" stop-opacity="0.2"/>
<stop offset="0.78" stop-color="#161616" stop-opacity="0.09"/>
<stop offset="0.9" stop-color="#050505" stop-opacity="0.02"/>
<stop offset="1" stop-opacity="0"/>
</radialGradient>
<radialGradient id="paint6_radial_1423_41494" cx="0" cy="0" r="1" gradientUnits="userSpaceOnUse" gradientTransform="translate(75.109 147.301) scale(17.2814 7.64368)">
<stop stop-color="#F8F8F8" stop-opacity="0.98"/>
<stop offset="0.09" stop-color="#C5C5C5" stop-opacity="0.77"/>
<stop offset="0.17" stop-color="#969696" stop-opacity="0.59"/>
<stop offset="0.26" stop-color="#6D6D6D" stop-opacity="0.43"/>
<stop offset="0.35" stop-color="#4B4B4B" stop-opacity="0.3"/>
<stop offset="0.45" stop-color="#303030" stop-opacity="0.19"/>
<stop offset="0.55" stop-color="#1A1A1A" stop-opacity="0.1"/>
<stop offset="0.66" stop-color="#0B0B0B" stop-opacity="0.05"/>
<stop offset="0.8" stop-color="#020202" stop-opacity="0.01"/>
<stop offset="1" stop-opacity="0"/>
</radialGradient>
<radialGradient id="paint7_radial_1423_41494" cx="0" cy="0" r="1" gradientUnits="userSpaceOnUse" gradientTransform="translate(72.2905 145.235) rotate(-45) scale(43.7167 1.97714)">
<stop stop-color="white"/>
<stop offset="0.08" stop-color="#CDCDCD" stop-opacity="0.8"/>
<stop offset="0.17" stop-color="#9D9D9D" stop-opacity="0.62"/>
<stop offset="0.26" stop-color="#737373" stop-opacity="0.45"/>
<stop offset="0.36" stop-color="#4F4F4F" stop-opacity="0.31"/>
<stop offset="0.46" stop-color="#323232" stop-opacity="0.2"/>
<stop offset="0.57" stop-color="#1C1C1C" stop-opacity="0.11"/>
<stop offset="0.68" stop-color="#0C0C0C" stop-opacity="0.05"/>
<stop offset="0.82" stop-color="#020202" stop-opacity="0.01"/>
<stop offset="1" stop-opacity="0"/>
</radialGradient>
<radialGradient id="paint8_radial_1423_41494" cx="0" cy="0" r="1" gradientUnits="userSpaceOnUse" gradientTransform="translate(78.0584 150.649) rotate(-45) scale(13.5018 16.3147)">
<stop stop-color="white"/>
<stop offset="0.15" stop-color="#C4C4C4" stop-opacity="0.77"/>
<stop offset="0.32" stop-color="#898989" stop-opacity="0.54"/>
<stop offset="0.48" stop-color="#585858" stop-opacity="0.35"/>
<stop offset="0.64" stop-color="#323232" stop-opacity="0.2"/>
<stop offset="0.78" stop-color="#161616" stop-opacity="0.09"/>
<stop offset="0.9" stop-color="#050505" stop-opacity="0.02"/>
<stop offset="1" stop-opacity="0"/>
</radialGradient>
<radialGradient id="paint9_radial_1423_41494" cx="0" cy="0" r="1" gradientUnits="userSpaceOnUse" gradientTransform="translate(75.0193 147.617) rotate(-45) scale(10.0778 7.24343)">
<stop stop-color="#F8F8F8" stop-opacity="0.98"/>
<stop offset="0.09" stop-color="#C5C5C5" stop-opacity="0.77"/>
<stop offset="0.17" stop-color="#969696" stop-opacity="0.59"/>
<stop offset="0.26" stop-color="#6D6D6D" stop-opacity="0.43"/>
<stop offset="0.35" stop-color="#4B4B4B" stop-opacity="0.3"/>
<stop offset="0.45" stop-color="#303030" stop-opacity="0.19"/>
<stop offset="0.55" stop-color="#1A1A1A" stop-opacity="0.1"/>
<stop offset="0.66" stop-color="#0B0B0B" stop-opacity="0.05"/>
<stop offset="0.8" stop-color="#020202" stop-opacity="0.01"/>
<stop offset="1" stop-opacity="0"/>
</radialGradient>
<radialGradient id="paint10_radial_1423_41494" cx="0" cy="0" r="1" gradientUnits="userSpaceOnUse" gradientTransform="translate(134.084 3.03545) rotate(18.33) scale(46.4312 1.99275)">
<stop stop-color="white"/>
<stop offset="0.08" stop-color="#CDCDCD" stop-opacity="0.8"/>
<stop offset="0.17" stop-color="#9D9D9D" stop-opacity="0.62"/>
<stop offset="0.26" stop-color="#737373" stop-opacity="0.45"/>
<stop offset="0.36" stop-color="#4F4F4F" stop-opacity="0.31"/>
<stop offset="0.46" stop-color="#323232" stop-opacity="0.2"/>
<stop offset="0.57" stop-color="#1C1C1C" stop-opacity="0.11"/>
<stop offset="0.68" stop-color="#0C0C0C" stop-opacity="0.05"/>
<stop offset="0.82" stop-color="#020202" stop-opacity="0.01"/>
<stop offset="1" stop-opacity="0"/>
</radialGradient>
<radialGradient id="paint11_radial_1423_41494" cx="0" cy="0" r="1" gradientUnits="userSpaceOnUse" gradientTransform="translate(127.646 36.4387) rotate(18.33) scale(20.4089 7.39821)">
<stop stop-color="white"/>
<stop offset="0.15" stop-color="#C4C4C4" stop-opacity="0.77"/>
<stop offset="0.32" stop-color="#898989" stop-opacity="0.54"/>
<stop offset="0.48" stop-color="#585858" stop-opacity="0.35"/>
<stop offset="0.64" stop-color="#323232" stop-opacity="0.2"/>
<stop offset="0.78" stop-color="#161616" stop-opacity="0.09"/>
<stop offset="0.9" stop-color="#050505" stop-opacity="0.02"/>
<stop offset="1" stop-opacity="0"/>
</radialGradient>
<radialGradient id="paint12_radial_1423_41494" cx="0" cy="0" r="1" gradientUnits="userSpaceOnUse" gradientTransform="translate(128.893 32.682) rotate(18.34) scale(15.2352 3.23749)">
<stop stop-color="#F8F8F8" stop-opacity="0.98"/>
<stop offset="0.09" stop-color="#C5C5C5" stop-opacity="0.77"/>
<stop offset="0.17" stop-color="#969696" stop-opacity="0.59"/>
<stop offset="0.26" stop-color="#6D6D6D" stop-opacity="0.43"/>
<stop offset="0.35" stop-color="#4B4B4B" stop-opacity="0.3"/>
<stop offset="0.45" stop-color="#303030" stop-opacity="0.19"/>
<stop offset="0.55" stop-color="#1A1A1A" stop-opacity="0.1"/>
<stop offset="0.66" stop-color="#0B0B0B" stop-opacity="0.05"/>
<stop offset="0.8" stop-color="#020202" stop-opacity="0.01"/>
<stop offset="1" stop-opacity="0"/>
</radialGradient>
<radialGradient id="paint13_radial_1423_41494" cx="0" cy="0" r="1" gradientUnits="userSpaceOnUse" gradientTransform="translate(132.871 88.9574) rotate(140.2) scale(76.7816 4.40851)">
<stop stop-color="white"/>
<stop offset="0.16" stop-color="#C0C0C0" stop-opacity="0.75"/>
<stop offset="0.32" stop-color="#868686" stop-opacity="0.53"/>
<stop offset="0.48" stop-color="#565656" stop-opacity="0.34"/>
<stop offset="0.63" stop-color="#303030" stop-opacity="0.19"/>
<stop offset="0.77" stop-color="#161616" stop-opacity="0.09"/>
<stop offset="0.9" stop-color="#050505" stop-opacity="0.02"/>
<stop offset="0.99" stop-opacity="0"/>
</radialGradient>
<radialGradient id="paint14_radial_1423_41494" cx="0" cy="0" r="1" gradientUnits="userSpaceOnUse" gradientTransform="translate(159.558 113.629) rotate(140.2) scale(34.2472 16.1577)">
<stop stop-color="#F8F8F8" stop-opacity="0.98"/>
<stop offset="0.09" stop-color="#C5C5C5" stop-opacity="0.77"/>
<stop offset="0.17" stop-color="#969696" stop-opacity="0.59"/>
<stop offset="0.26" stop-color="#6D6D6D" stop-opacity="0.43"/>
<stop offset="0.35" stop-color="#4B4B4B" stop-opacity="0.3"/>
<stop offset="0.44" stop-color="#303030" stop-opacity="0.19"/>
<stop offset="0.55" stop-color="#1A1A1A" stop-opacity="0.1"/>
<stop offset="0.66" stop-color="#0B0B0B" stop-opacity="0.05"/>
<stop offset="0.8" stop-color="#020202" stop-opacity="0.01"/>
<stop offset="1" stop-opacity="0"/>
</radialGradient>
<radialGradient id="paint15_radial_1423_41494" cx="0" cy="0" r="1" gradientUnits="userSpaceOnUse" gradientTransform="translate(138.069 92.7701) rotate(140.2) scale(59.1364 13.3326)">
<stop stop-color="#F8F8F8" stop-opacity="0.98"/>
<stop offset="0.09" stop-color="#C5C5C5" stop-opacity="0.77"/>
<stop offset="0.17" stop-color="#969696" stop-opacity="0.59"/>
<stop offset="0.26" stop-color="#6D6D6D" stop-opacity="0.43"/>
<stop offset="0.35" stop-color="#4B4B4B" stop-opacity="0.3"/>
<stop offset="0.44" stop-color="#303030" stop-opacity="0.19"/>
<stop offset="0.55" stop-color="#1A1A1A" stop-opacity="0.1"/>
<stop offset="0.66" stop-color="#0B0B0B" stop-opacity="0.05"/>
<stop offset="0.8" stop-color="#020202" stop-opacity="0.01"/>
<stop offset="1" stop-opacity="0"/>
</radialGradient>
<radialGradient id="paint16_radial_1423_41494" cx="0" cy="0" r="1" gradientUnits="userSpaceOnUse" gradientTransform="translate(56.6496 30.5276) scale(18.0419 18.1988)">
<stop stop-color="white"/>
<stop offset="0.15" stop-color="#C4C4C4" stop-opacity="0.77"/>
<stop offset="0.32" stop-color="#898989" stop-opacity="0.54"/>
<stop offset="0.48" stop-color="#585858" stop-opacity="0.35"/>
<stop offset="0.64" stop-color="#323232" stop-opacity="0.2"/>
<stop offset="0.78" stop-color="#161616" stop-opacity="0.09"/>
<stop offset="0.9" stop-color="#050505" stop-opacity="0.02"/>
<stop offset="1" stop-opacity="0"/>
</radialGradient>
<radialGradient id="paint17_radial_1423_41494" cx="0" cy="0" r="1" gradientUnits="userSpaceOnUse" gradientTransform="translate(20.5469 8.647) scale(5.50425 5.55211)">
<stop stop-color="white"/>
<stop offset="0.15" stop-color="#C4C4C4" stop-opacity="0.77"/>
<stop offset="0.32" stop-color="#898989" stop-opacity="0.54"/>
<stop offset="0.48" stop-color="#585858" stop-opacity="0.35"/>
<stop offset="0.64" stop-color="#323232" stop-opacity="0.2"/>
<stop offset="0.78" stop-color="#161616" stop-opacity="0.09"/>
<stop offset="0.9" stop-color="#050505" stop-opacity="0.02"/>
<stop offset="1" stop-opacity="0"/>
</radialGradient>
<radialGradient id="paint18_radial_1423_41494" cx="0" cy="0" r="1" gradientUnits="userSpaceOnUse" gradientTransform="translate(43.8597 39.7304) scale(7.96388 8.03313)">
<stop stop-color="white"/>
<stop offset="0.15" stop-color="#C4C4C4" stop-opacity="0.77"/>
<stop offset="0.32" stop-color="#898989" stop-opacity="0.54"/>
<stop offset="0.48" stop-color="#585858" stop-opacity="0.35"/>
<stop offset="0.64" stop-color="#323232" stop-opacity="0.2"/>
<stop offset="0.78" stop-color="#161616" stop-opacity="0.09"/>
<stop offset="0.9" stop-color="#050505" stop-opacity="0.02"/>
<stop offset="1" stop-opacity="0"/>
</radialGradient>
<radialGradient id="paint19_radial_1423_41494" cx="0" cy="0" r="1" gradientUnits="userSpaceOnUse" gradientTransform="translate(49.7454 11.1038) scale(5.13136 5.17599)">
<stop stop-color="white"/>
<stop offset="0.15" stop-color="#C4C4C4" stop-opacity="0.77"/>
<stop offset="0.32" stop-color="#898989" stop-opacity="0.54"/>
<stop offset="0.48" stop-color="#585858" stop-opacity="0.35"/>
<stop offset="0.64" stop-color="#323232" stop-opacity="0.2"/>
<stop offset="0.78" stop-color="#161616" stop-opacity="0.09"/>
<stop offset="0.9" stop-color="#050505" stop-opacity="0.02"/>
<stop offset="1" stop-opacity="0"/>
</radialGradient>
<radialGradient id="paint20_radial_1423_41494" cx="0" cy="0" r="1" gradientUnits="userSpaceOnUse" gradientTransform="translate(41.8741 17.7809) scale(3.55089 3.58178)">
<stop stop-color="white"/>
<stop offset="0.15" stop-color="#C4C4C4" stop-opacity="0.77"/>
<stop offset="0.32" stop-color="#898989" stop-opacity="0.54"/>
<stop offset="0.48" stop-color="#585858" stop-opacity="0.35"/>
<stop offset="0.64" stop-color="#323232" stop-opacity="0.2"/>
<stop offset="0.78" stop-color="#161616" stop-opacity="0.09"/>
<stop offset="0.9" stop-color="#050505" stop-opacity="0.02"/>
<stop offset="1" stop-opacity="0"/>
</radialGradient>
<radialGradient id="paint21_radial_1423_41494" cx="0" cy="0" r="1" gradientUnits="userSpaceOnUse" gradientTransform="translate(22.0048 34.5545) scale(9.01066 9.08903)">
<stop stop-color="white"/>
<stop offset="0.15" stop-color="#C4C4C4" stop-opacity="0.77"/>
<stop offset="0.32" stop-color="#898989" stop-opacity="0.54"/>
<stop offset="0.48" stop-color="#585858" stop-opacity="0.35"/>
<stop offset="0.64" stop-color="#323232" stop-opacity="0.2"/>
<stop offset="0.78" stop-color="#161616" stop-opacity="0.09"/>
<stop offset="0.9" stop-color="#050505" stop-opacity="0.02"/>
<stop offset="1" stop-opacity="0"/>
</radialGradient>
<radialGradient id="paint22_radial_1423_41494" cx="0" cy="0" r="1" gradientUnits="userSpaceOnUse" gradientTransform="translate(40.0052 57.7601) scale(14.556 14.6826)">
<stop stop-color="white"/>
<stop offset="0.15" stop-color="#C4C4C4" stop-opacity="0.77"/>
<stop offset="0.32" stop-color="#898989" stop-opacity="0.54"/>
<stop offset="0.48" stop-color="#585858" stop-opacity="0.35"/>
<stop offset="0.64" stop-color="#323232" stop-opacity="0.2"/>
<stop offset="0.78" stop-color="#161616" stop-opacity="0.09"/>
<stop offset="0.9" stop-color="#050505" stop-opacity="0.02"/>
<stop offset="1" stop-opacity="0"/>
</radialGradient>
<radialGradient id="paint23_radial_1423_41494" cx="0" cy="0" r="1" gradientUnits="userSpaceOnUse" gradientTransform="translate(92.1531 114.02) rotate(152.68) scale(98.1132 4.40959)">
<stop stop-color="white"/>
<stop offset="0.16" stop-color="#C0C0C0" stop-opacity="0.75"/>
<stop offset="0.32" stop-color="#868686" stop-opacity="0.53"/>
<stop offset="0.48" stop-color="#565656" stop-opacity="0.34"/>
<stop offset="0.63" stop-color="#303030" stop-opacity="0.19"/>
<stop offset="0.77" stop-color="#161616" stop-opacity="0.09"/>
<stop offset="0.9" stop-color="#050505" stop-opacity="0.02"/>
<stop offset="0.99" stop-opacity="0"/>
</radialGradient>
<radialGradient id="paint24_radial_1423_41494" cx="0" cy="0" r="1" gradientUnits="userSpaceOnUse" gradientTransform="translate(105.116 149.321) rotate(152.68) scale(43.8992 16.1549)">
<stop stop-color="#F8F8F8" stop-opacity="0.98"/>
<stop offset="0.09" stop-color="#C5C5C5" stop-opacity="0.77"/>
<stop offset="0.17" stop-color="#969696" stop-opacity="0.59"/>
<stop offset="0.26" stop-color="#6D6D6D" stop-opacity="0.43"/>
<stop offset="0.35" stop-color="#4B4B4B" stop-opacity="0.3"/>
<stop offset="0.44" stop-color="#303030" stop-opacity="0.19"/>
<stop offset="0.55" stop-color="#1A1A1A" stop-opacity="0.1"/>
<stop offset="0.66" stop-color="#0B0B0B" stop-opacity="0.05"/>
<stop offset="0.8" stop-color="#020202" stop-opacity="0.01"/>
<stop offset="1" stop-opacity="0"/>
</radialGradient>
<radialGradient id="paint25_radial_1423_41494" cx="0" cy="0" r="1" gradientUnits="userSpaceOnUse" gradientTransform="translate(99.2157 117.675) rotate(152.68) scale(75.4795 13.3326)">
<stop stop-color="#F8F8F8" stop-opacity="0.98"/>
<stop offset="0.09" stop-color="#C5C5C5" stop-opacity="0.77"/>
<stop offset="0.17" stop-color="#969696" stop-opacity="0.59"/>
<stop offset="0.26" stop-color="#6D6D6D" stop-opacity="0.43"/>
<stop offset="0.35" stop-color="#4B4B4B" stop-opacity="0.3"/>
<stop offset="0.44" stop-color="#303030" stop-opacity="0.19"/>
<stop offset="0.55" stop-color="#1A1A1A" stop-opacity="0.1"/>
<stop offset="0.66" stop-color="#0B0B0B" stop-opacity="0.05"/>
<stop offset="0.8" stop-color="#020202" stop-opacity="0.01"/>
<stop offset="1" stop-opacity="0"/>
</radialGradient>
<radialGradient id="paint26_radial_1423_41494" cx="0" cy="0" r="1" gradientUnits="userSpaceOnUse" gradientTransform="translate(35.1866 132.323) rotate(176.63) scale(37.3242 2.79932)">
<stop stop-color="white"/>
<stop offset="0.16" stop-color="#C0C0C0" stop-opacity="0.75"/>
<stop offset="0.32" stop-color="#868686" stop-opacity="0.53"/>
<stop offset="0.48" stop-color="#565656" stop-opacity="0.34"/>
<stop offset="0.63" stop-color="#303030" stop-opacity="0.19"/>
<stop offset="0.77" stop-color="#161616" stop-opacity="0.09"/>
<stop offset="0.9" stop-color="#050505" stop-opacity="0.02"/>
<stop offset="0.99" stop-opacity="0"/>
</radialGradient>
<radialGradient id="paint27_radial_1423_41494" cx="0" cy="0" r="1" gradientUnits="userSpaceOnUse" gradientTransform="translate(44.0186 172.221) rotate(176.62) scale(16.6123 10.2573)">
<stop stop-color="#F8F8F8" stop-opacity="0.98"/>
<stop offset="0.09" stop-color="#C5C5C5" stop-opacity="0.77"/>
<stop offset="0.17" stop-color="#969696" stop-opacity="0.59"/>
<stop offset="0.26" stop-color="#6D6D6D" stop-opacity="0.43"/>
<stop offset="0.35" stop-color="#4B4B4B" stop-opacity="0.3"/>
<stop offset="0.44" stop-color="#303030" stop-opacity="0.19"/>
<stop offset="0.55" stop-color="#1A1A1A" stop-opacity="0.1"/>
<stop offset="0.66" stop-color="#0B0B0B" stop-opacity="0.05"/>
<stop offset="0.8" stop-color="#020202" stop-opacity="0.01"/>
<stop offset="1" stop-opacity="0"/>
</radialGradient>
<radialGradient id="paint28_radial_1423_41494" cx="0" cy="0" r="1" gradientUnits="userSpaceOnUse" gradientTransform="translate(41.3455 139.633) rotate(176.62) scale(28.6669 8.46357)">
<stop stop-color="#F8F8F8" stop-opacity="0.98"/>
<stop offset="0.09" stop-color="#C5C5C5" stop-opacity="0.77"/>
<stop offset="0.17" stop-color="#969696" stop-opacity="0.59"/>
<stop offset="0.26" stop-color="#6D6D6D" stop-opacity="0.43"/>
<stop offset="0.35" stop-color="#4B4B4B" stop-opacity="0.3"/>
<stop offset="0.44" stop-color="#303030" stop-opacity="0.19"/>
<stop offset="0.55" stop-color="#1A1A1A" stop-opacity="0.1"/>
<stop offset="0.66" stop-color="#0B0B0B" stop-opacity="0.05"/>
<stop offset="0.8" stop-color="#020202" stop-opacity="0.01"/>
<stop offset="1" stop-opacity="0"/>
</radialGradient>
<radialGradient id="paint29_radial_1423_41494" cx="0" cy="0" r="1" gradientUnits="userSpaceOnUse" gradientTransform="translate(123.443 88.0248) rotate(-95.83) scale(25.4174 1.8655)">
<stop stop-color="white"/>
<stop offset="0.16" stop-color="#C0C0C0" stop-opacity="0.75"/>
<stop offset="0.32" stop-color="#868686" stop-opacity="0.53"/>
<stop offset="0.48" stop-color="#565656" stop-opacity="0.34"/>
<stop offset="0.63" stop-color="#303030" stop-opacity="0.19"/>
<stop offset="0.77" stop-color="#161616" stop-opacity="0.09"/>
<stop offset="0.9" stop-color="#050505" stop-opacity="0.02"/>
<stop offset="0.99" stop-opacity="0"/>
</radialGradient>
<radialGradient id="paint30_radial_1423_41494" cx="0" cy="0" r="1" gradientUnits="userSpaceOnUse" gradientTransform="translate(92.4513 91.4267) rotate(-95.83) scale(11.3722 7.024)">
<stop stop-color="#F8F8F8" stop-opacity="0.98"/>
<stop offset="0.09" stop-color="#C5C5C5" stop-opacity="0.77"/>
<stop offset="0.17" stop-color="#969696" stop-opacity="0.59"/>
<stop offset="0.26" stop-color="#6D6D6D" stop-opacity="0.43"/>
<stop offset="0.35" stop-color="#4B4B4B" stop-opacity="0.3"/>
<stop offset="0.44" stop-color="#303030" stop-opacity="0.19"/>
<stop offset="0.55" stop-color="#1A1A1A" stop-opacity="0.1"/>
<stop offset="0.66" stop-color="#0B0B0B" stop-opacity="0.05"/>
<stop offset="0.8" stop-color="#020202" stop-opacity="0.01"/>
<stop offset="1" stop-opacity="0"/>
</radialGradient>
<radialGradient id="paint31_radial_1423_41494" cx="0" cy="0" r="1" gradientUnits="userSpaceOnUse" gradientTransform="translate(93.1858 91.1218) rotate(-95.83) scale(19.6573 5.8699)">
<stop stop-color="#F8F8F8" stop-opacity="0.98"/>
<stop offset="0.09" stop-color="#C5C5C5" stop-opacity="0.77"/>
<stop offset="0.17" stop-color="#969696" stop-opacity="0.59"/>
<stop offset="0.26" stop-color="#6D6D6D" stop-opacity="0.43"/>
<stop offset="0.35" stop-color="#4B4B4B" stop-opacity="0.3"/>
<stop offset="0.44" stop-color="#303030" stop-opacity="0.19"/>
<stop offset="0.55" stop-color="#1A1A1A" stop-opacity="0.1"/>
<stop offset="0.66" stop-color="#0B0B0B" stop-opacity="0.05"/>
<stop offset="0.8" stop-color="#020202" stop-opacity="0.01"/>
<stop offset="1" stop-opacity="0"/>
</radialGradient>
<radialGradient id="paint32_radial_1423_41494" cx="0" cy="0" r="1" gradientUnits="userSpaceOnUse" gradientTransform="translate(100.211 195.119) scale(75.2633 20.9869)">
<stop stop-color="#16D3F9"/>
<stop offset="0.04" stop-color="#16D3F9" stop-opacity="0.92"/>
<stop offset="0.15" stop-color="#16D3F9" stop-opacity="0.71"/>
<stop offset="0.26" stop-color="#16D3F9" stop-opacity="0.52"/>
<stop offset="0.37" stop-color="#16D3F9" stop-opacity="0.36"/>
<stop offset="0.48" stop-color="#16D3F9" stop-opacity="0.23"/>
<stop offset="0.6" stop-color="#16D3F9" stop-opacity="0.13"/>
<stop offset="0.72" stop-color="#16D3F9" stop-opacity="0.06"/>
<stop offset="0.85" stop-color="#16D3F9" stop-opacity="0.01"/>
<stop offset="1" stop-color="#16D3F9" stop-opacity="0"/>
</radialGradient>
<radialGradient id="paint33_radial_1423_41494" cx="0" cy="0" r="1" gradientUnits="userSpaceOnUse" gradientTransform="translate(100.212 -676.268) scale(42.1794 11.7616)">
<stop stop-color="#16D3F9"/>
<stop offset="0.04" stop-color="#16D3F9" stop-opacity="0.92"/>
<stop offset="0.15" stop-color="#16D3F9" stop-opacity="0.71"/>
<stop offset="0.26" stop-color="#16D3F9" stop-opacity="0.52"/>
<stop offset="0.37" stop-color="#16D3F9" stop-opacity="0.36"/>
<stop offset="0.48" stop-color="#16D3F9" stop-opacity="0.23"/>
<stop offset="0.6" stop-color="#16D3F9" stop-opacity="0.13"/>
<stop offset="0.72" stop-color="#16D3F9" stop-opacity="0.06"/>
<stop offset="0.85" stop-color="#16D3F9" stop-opacity="0.01"/>
<stop offset="1" stop-color="#16D3F9" stop-opacity="0"/>
</radialGradient>
</defs>
</svg>
