<svg width="18" height="18" viewBox="0 0 18 18" fill="none" xmlns="http://www.w3.org/2000/svg">
<path d="M17.6673 4.04162V15.9171C17.6673 16.4155 17.5005 16.8318 17.1668 17.1662C16.8332 17.5006 16.4164 17.6674 15.9167 17.6667H2.08465C1.5856 17.6667 1.16923 17.4999 0.835567 17.1662C0.501901 16.8325 0.334707 16.4158 0.333984 15.916V2.08404C0.333984 1.58499 0.501179 1.16862 0.835567 0.834957C1.16996 0.50129 1.58632 0.334096 2.08465 0.333374H13.9591L17.6673 4.04162ZM16.584 4.50421L13.4965 1.41671H2.08465C1.88965 1.41671 1.72968 1.47918 1.60473 1.60412C1.47979 1.72907 1.41732 1.88904 1.41732 2.08404V15.9171C1.41732 16.1114 1.47979 16.271 1.60473 16.396C1.72968 16.5209 1.88965 16.5834 2.08465 16.5834H15.9177C16.112 16.5834 16.2716 16.5209 16.3966 16.396C16.5215 16.271 16.584 16.111 16.584 15.916V4.50421ZM9.00065 13.9162C9.59793 13.9162 10.1085 13.7046 10.5325 13.2814C10.9564 12.8582 11.168 12.3475 11.1673 11.7495C11.1666 11.1515 10.9546 10.6413 10.5314 10.2188C10.1082 9.79629 9.59793 9.58468 9.00065 9.58396C8.40337 9.58323 7.89312 9.79485 7.4699 10.2188C7.04668 10.6427 6.83471 11.153 6.83398 11.7495C6.83326 12.3461 7.04523 12.8567 7.4699 13.2814C7.89457 13.706 8.40482 13.9177 9.00065 13.9162ZM3.33482 6.58421H11.3753V3.33421H3.33482V6.58421ZM1.41732 4.50421V16.5834V1.41671V4.50421Z" fill="white"/>
</svg>
