<svg width="11" height="8" viewBox="0 0 11 8" fill="none" xmlns="http://www.w3.org/2000/svg">
<path d="M0.550331 8H10.4506C10.5508 7.99969 10.6491 7.97284 10.7348 7.92233C10.8205 7.87181 10.8904 7.79955 10.9369 7.71333C10.9835 7.6271 11.005 7.53017 10.999 7.43297C10.9931 7.33577 10.96 7.24198 10.9033 7.1617L5.95314 0.215985C5.74798 -0.0719951 5.25407 -0.0719951 5.04836 0.215985L0.0982183 7.1617C0.0409204 7.24182 0.00731955 7.33565 0.00106644 7.43301C-0.00518667 7.53037 0.0161471 7.62754 0.06275 7.71395C0.109353 7.80036 0.179442 7.87271 0.265403 7.92314C0.351364 7.97357 0.449909 8.00015 0.550331 8Z" fill="white"/>
</svg>
